<svg xmlns="http://www.w3.org/2000/svg" xmlns:xlink="http://www.w3.org/1999/xlink" width="500" zoomAndPan="magnify" viewBox="0 0 375 374.999991" height="500" preserveAspectRatio="xMidYMid meet" version="1.0"><defs><clipPath id="3483d600b9"><path d="M 50 39 L 324 39 L 324 335 L 50 335 Z M 50 39 " clip-rule="nonzero"/></clipPath><clipPath id="00d800e81f"><path d="M 2.179688 13.429688 L 2.179688 361.570312 C 2.179688 367.78125 7.21875 372.820312 13.429688 372.820312 L 361.570312 372.820312 C 367.78125 372.820312 372.820312 367.78125 372.820312 361.570312 L 372.820312 13.429688 C 372.820312 7.21875 367.78125 2.179688 361.570312 2.179688 L 13.429688 2.179688 C 7.21875 2.179688 2.179688 7.21875 2.179688 13.429688 Z M 2.179688 13.429688 " clip-rule="nonzero"/></clipPath></defs><g clip-path="url(#3483d600b9)"><g clip-path="url(#00d800e81f)"><path fill="#2a2a2a" d="M 200.824219 40.230469 C 200.007812 41.546875 197.984375 44.980469 195.828125 48.691406 C 192.769531 53.960938 190.519531 57.769531 188.929688 60.363281 C 188.261719 61.457031 187.082031 63.453125 186.308594 64.796875 C 185.539062 66.140625 183.722656 69.234375 182.277344 71.671875 C 180.828125 74.113281 178.753906 77.65625 177.667969 79.546875 C 176.429688 81.691406 175.183594 83.832031 173.933594 85.96875 C 172.96875 87.613281 171.78125 89.648438 171.296875 90.496094 C 170.816406 91.339844 169.265625 93.988281 167.859375 96.375 C 165.136719 101 162.816406 104.964844 160.769531 108.5 C 158.515625 112.394531 154.386719 119.433594 151.214844 124.789062 C 149.503906 127.675781 147.832031 130.523438 147.503906 131.121094 C 146.222656 133.441406 144.449219 136.542969 142.070312 140.625 C 140.511719 143.300781 138.960938 145.988281 137.421875 148.675781 C 134.859375 153.167969 130.265625 161.144531 128.046875 164.964844 C 127.179688 166.457031 125.40625 169.550781 124.105469 171.839844 C 121.523438 176.382812 119.132812 180.535156 115.554688 186.679688 C 112.648438 191.671875 111.304688 194.019531 111.304688 194.113281 C 111.304688 194.152344 110.980469 194.714844 110.582031 195.367188 C 110.183594 196.015625 109.113281 197.871094 108.203125 199.484375 C 107.292969 201.101562 105.917969 203.484375 105.148438 204.777344 C 104.378906 206.070312 102.777344 208.839844 101.589844 210.929688 C 100.402344 213.019531 97.144531 218.722656 94.347656 223.597656 C 91.554688 228.476562 89.066406 232.832031 88.816406 233.28125 C 88.5625 233.730469 86.792969 236.824219 84.878906 240.15625 C 82.964844 243.492188 81.054688 246.832031 80.632812 247.578125 C 78.082031 252.113281 74.882812 257.777344 74.347656 258.707031 C 69.855469 266.507812 64.988281 275.066406 63.132812 278.433594 C 62.582031 279.429688 61.679688 281.058594 61.128906 282.050781 C 60.578125 283.046875 59.863281 284.351562 59.539062 284.949219 C 59.21875 285.546875 58.570312 286.683594 58.101562 287.480469 C 56.816406 289.660156 54.695312 293.511719 53.234375 296.316406 C 52.515625 297.6875 51.683594 299.214844 51.382812 299.707031 C 51.078125 300.199219 50.859375 300.683594 50.894531 300.785156 C 50.964844 301 53.15625 299.007812 57.375 294.894531 C 59.019531 293.292969 61.175781 291.21875 62.171875 290.28125 C 63.167969 289.347656 64.796875 287.796875 65.792969 286.839844 C 66.789062 285.882812 68.089844 284.664062 68.6875 284.125 C 69.285156 283.589844 70.914062 282.046875 72.3125 280.703125 C 74.636719 278.457031 76.738281 276.460938 88.03125 265.765625 C 90.132812 263.777344 92.992188 261.042969 94.386719 259.691406 C 95.777344 258.339844 98.488281 255.773438 100.40625 253.988281 C 107.5625 247.328125 114.96875 240.351562 120.179688 235.363281 C 122.308594 233.320312 126.269531 229.605469 133.464844 222.890625 C 139.75 217.023438 150.292969 206.960938 154.507812 202.800781 C 156.421875 200.914062 158.023438 199.40625 158.066406 199.449219 C 158.144531 199.527344 158.4375 205.609375 158.996094 218.804688 C 159.144531 222.335938 159.425781 228.566406 159.621094 232.648438 C 159.816406 236.726562 160.0625 242.023438 160.164062 244.410156 C 160.269531 246.800781 160.476562 251.359375 160.625 254.542969 C 160.769531 257.730469 161.050781 264.367188 161.25 269.292969 C 161.449219 274.222656 161.6875 280.164062 161.785156 282.503906 C 161.886719 285.066406 161.984375 287.628906 162.078125 290.191406 L 162.203125 293.625 L 162.585938 293.140625 C 162.800781 292.871094 163.585938 291.710938 164.332031 290.554688 C 166.1875 287.683594 171.476562 279.691406 178.085938 269.777344 C 181.121094 265.21875 184.414062 260.253906 185.402344 258.742188 C 188.722656 253.667969 197.835938 239.898438 198.664062 238.710938 C 199.113281 238.0625 200.820312 235.496094 202.460938 233.007812 C 204.101562 230.519531 206.082031 227.546875 206.867188 226.402344 C 209.121094 223.117188 220.121094 206.625 222.921875 202.335938 C 224.320312 200.195312 225.632812 198.238281 225.839844 197.992188 C 226.347656 197.378906 226.511719 197.664062 226.671875 199.417969 C 226.738281 200.175781 226.996094 202.507812 227.242188 204.597656 C 227.484375 206.6875 227.847656 209.824219 228.046875 211.5625 C 228.457031 215.171875 228.90625 218.710938 230.191406 228.484375 C 231.339844 237.210938 233.136719 251.652344 234.910156 266.398438 C 235.636719 272.421875 237.25 286.066406 237.371094 287.203125 C 237.527344 288.636719 237.582031 288.691406 240.429688 290.175781 C 241.625 290.796875 244.757812 292.488281 247.394531 293.933594 C 250.035156 295.378906 253.617188 297.320312 255.359375 298.25 C 258.472656 299.910156 264.398438 303.101562 265.902344 303.929688 L 268.542969 305.382812 C 269.574219 305.949219 272.101562 307.277344 274.15625 308.328125 C 276.210938 309.382812 278.828125 310.792969 279.972656 311.464844 C 281.117188 312.132812 284.332031 313.882812 287.121094 315.355469 C 289.90625 316.824219 292.886719 318.417969 293.746094 318.890625 C 295.492188 319.863281 297.515625 320.933594 301.230469 322.859375 C 302.621094 323.582031 303.921875 324.273438 304.125 324.398438 C 304.328125 324.523438 305.023438 324.90625 305.667969 325.253906 C 306.316406 325.597656 308.554688 326.816406 310.644531 327.964844 C 312.734375 329.109375 315.953125 330.800781 317.792969 331.722656 C 319.632812 332.644531 321.464844 333.625 321.863281 333.898438 C 322.601562 334.402344 323.667969 334.988281 323.847656 334.988281 C 324.078125 334.988281 323.914062 334.367188 323.425781 333.398438 C 322.9375 332.429688 322.175781 330.640625 319.597656 324.398438 C 319.019531 323.007812 318.125 320.890625 317.609375 319.695312 C 317.089844 318.5 316.152344 316.300781 315.527344 314.808594 C 314.902344 313.316406 313.5625 310.140625 312.550781 307.75 C 311.535156 305.363281 310.394531 302.632812 310.015625 301.6875 C 309.636719 300.742188 308.65625 298.378906 307.84375 296.441406 C 307.027344 294.5 305.300781 290.34375 304.003906 287.210938 C 301.453125 281.035156 300.65625 279.140625 299.335938 276.082031 C 298.863281 274.984375 297.769531 272.347656 296.902344 270.21875 C 296.039062 268.089844 294.390625 264.136719 293.238281 261.441406 C 292.085938 258.742188 290.308594 254.5 289.285156 252.011719 C 286.8125 245.996094 284.539062 240.519531 283.5 238.078125 C 283.03125 236.980469 281.933594 234.335938 281.058594 232.195312 C 278.636719 226.277344 277.679688 223.992188 276.585938 221.515625 C 276.03125 220.273438 275.113281 218.074219 274.539062 216.632812 C 273.964844 215.1875 272.703125 212.132812 271.734375 209.84375 C 270.761719 207.554688 269.746094 205.113281 269.472656 204.414062 C 269.199219 203.71875 268.445312 201.886719 267.796875 200.34375 C 266.511719 197.269531 265.230469 194.191406 263.949219 191.113281 C 262.476562 187.582031 260.914062 183.835938 260.472656 182.789062 C 260.03125 181.746094 259.019531 179.261719 258.21875 177.269531 C 257.417969 175.28125 256.152344 172.183594 255.410156 170.394531 C 253.683594 166.25 247.804688 152.019531 246.730469 149.402344 C 245.804688 147.136719 241.675781 137.234375 237.980469 128.40625 C 236.601562 125.125 234.625 120.359375 233.582031 117.820312 C 232.539062 115.28125 231.0625 111.742188 230.296875 109.949219 C 229.535156 108.15625 228.109375 104.695312 227.128906 102.257812 C 226.152344 99.820312 224.847656 96.644531 224.230469 95.199219 C 223.613281 93.757812 222.757812 91.71875 222.335938 90.675781 C 221.910156 89.628906 220.851562 87.066406 219.980469 84.976562 C 219.113281 82.882812 217.890625 79.914062 217.265625 78.371094 C 216.640625 76.828125 215.253906 73.527344 214.1875 71.039062 C 213.117188 68.550781 211.40625 64.480469 210.386719 61.992188 C 209.363281 59.503906 207.902344 56.019531 207.140625 54.25 C 206.378906 52.480469 205.195312 49.589844 204.511719 47.824219 C 203.824219 46.0625 202.898438 43.761719 202.453125 42.71875 C 202.003906 41.671875 201.582031 40.59375 201.515625 40.320312 C 201.363281 39.714844 201.160156 39.6875 200.824219 40.230469 " fill-opacity="1" fill-rule="evenodd"/></g></g></svg>